<?xml version="1.0" standalone="no"?>
<!DOCTYPE svg PUBLIC "-//W3C//DTD SVG 1.1//EN" "http://www.w3.org/Graphics/SVG/1.1/DTD/svg11.dtd" >
<svg xmlns="http://www.w3.org/2000/svg">
<metadata></metadata>
<defs>
<font id="RockwellStdLightRegular" horiz-adv-x="1087" >
<font-face units-per-em="2048" ascent="1391" descent="-657" />
<missing-glyph horiz-adv-x="512" />
<glyph unicode="&#xfb01;" horiz-adv-x="1110" d="M47 0v92h156v785h-150v92h150v178q0 133 73.5 199.5t162.5 66.5t149.5 -52t81.5 -142l-97 -15q-20 61 -52 89t-89 28t-90 -42t-33 -114v-196h629v-877h145v-92h-403v92h151v785h-522v-785h142v-92h-404zM809 1330q0 34 23.5 58.5t58.5 24.5t59.5 -24.5t24.5 -57.5 t-24.5 -58.5t-58.5 -25.5t-58.5 24.5t-24.5 58.5z" />
<glyph unicode="&#xfb02;" horiz-adv-x="1110" d="M47 0v92h156v785h-156v92h156v178q0 135 72.5 200.5t166.5 65.5q56 1 101 -22h393v-1299h147v-92h-403v92h149v1206h-190q18 -27 31 -79l-97 -15q-20 61 -52 89t-89 28t-90 -42t-33 -114v-196h158v-92h-158v-785h142v-92h-404z" />
<glyph horiz-adv-x="0" />
<glyph horiz-adv-x="2048" />
<glyph unicode="&#xd;" horiz-adv-x="681" />
<glyph unicode=" "  horiz-adv-x="512" />
<glyph unicode="&#x09;" horiz-adv-x="512" />
<glyph unicode="&#xa0;" horiz-adv-x="512" />
<glyph unicode="!" horiz-adv-x="512" d="M199 0v190h114v-190h-114zM203 956v435h106v-435l-24 -587h-58z" />
<glyph unicode="&#x22;" horiz-adv-x="575" d="M72 1200v213h114v-213l-28 -258h-58zM391 1200v213h115v-213l-29 -258h-57z" />
<glyph unicode="#" horiz-adv-x="1368" d="M168 430v92h188l82 398h-270v92h289l86 418h96l-86 -418h389l86 418h96l-86 -418h164v-92h-184l-80 -398h264v-92h-284l-91 -416h-96l90 416h-385l-90 -416h-96l90 416h-172zM453 522h389l80 398h-387z" />
<glyph unicode="$" horiz-adv-x="1044" d="M76 410h102q38 -315 314 -340v596q-170 23 -269.5 114.5t-99.5 233t101.5 235.5t267.5 105v59h94v-59q330 -47 342 -404h-99q-6 266 -243 314v-519q399 -61 399 -376q0 -166 -104.5 -268.5t-294.5 -120.5v-154h-94v154q-373 18 -416 430zM231 1022q1 -189 261 -252v498 q-121 -10 -191 -76t-70 -170zM586 72q139 16 221 93t82 191.5t-74 189.5t-229 97v-571z" />
<glyph unicode="%" horiz-adv-x="1728" d="M68 1042.5q0 182.5 70.5 276.5t207.5 94q275 0 275 -372t-277 -371q-135 0 -205.5 95t-70.5 277.5zM153.5 1041.5q0.5 -314.5 193 -314.5t192.5 313q0 154 -49.5 235t-141.5 81q-195 0 -194.5 -314.5zM338 0l979 1391h69l-978 -1391h-70zM1106 362.5q0 182.5 70.5 276.5 t207.5 94q275 0 275 -372t-277 -371q-135 0 -205.5 95t-70.5 277.5zM1191.5 361.5q0.5 -314.5 193 -314.5t192.5 313q0 154 -49 235t-142 81q-195 0 -194.5 -314.5z" />
<glyph unicode="&#x26;" horiz-adv-x="1429" d="M106 412q0 291 365 422q-53 72 -79 110q-70 101 -70 182q0 119 96 203t230 84t225.5 -81t91.5 -193.5t-83 -192.5t-264 -149l340 -482q111 160 154 383h236v-92h-156q-37 -135 -73 -213t-97 -155l106 -146h220v-92h-275l-115 158q-180 -178 -386 -178t-336 123.5 t-130 308.5zM221 428q0 -129 94.5 -238.5t264 -109.5t319.5 158l-373 520q-305 -109 -305 -330zM424 1137q0 -63 52 -137q16 -23 25 -36q37 -56 64 -92q150 53 227.5 116t77.5 145t-64.5 136t-159.5 54t-158.5 -53t-63.5 -133z" />
<glyph unicode="'" horiz-adv-x="448" d="M168 1200v213h115v-213l-29 -258h-57z" />
<glyph unicode="(" horiz-adv-x="724" d="M180 489.5q0 137.5 23.5 265.5t76 257t152.5 234.5t240 166.5v-90q-195 -115 -289 -317.5t-94 -516t94 -516t289 -317.5v-90q-139 61 -239.5 166.5t-153 234.5t-76 257t-23.5 265.5z" />
<glyph unicode=")" horiz-adv-x="724" d="M53 -344q195 115 289 317.5t94 516t-94 516t-289 317.5v90q139 -61 239.5 -166.5t153 -234.5t76 -257t23.5 -265.5t-23.5 -265.5t-76 -257t-152.5 -234.5t-240 -166.5v90z" />
<glyph unicode="*" horiz-adv-x="1003" d="M72 1047l37 108l145 -47q29 -31 74 -52.5t149 -58.5q-11 184 -37 242v152h123v-152q-18 -39 -26 -92t-11 -150q172 59 224 111l145 47l37 -108l-152 -50q-57 16 -235 -45q106 -162 164 -182l90 -125l-90 -67l-91 122q-4 45 -27.5 87t-88.5 131q-10 -14 -29.5 -40 t-28 -38.5t-21.5 -33t-19 -34.5q-15 -31 -19 -72l-92 -122l-88 67l88 125q39 16 68.5 51t99.5 131q-174 57 -240 45z" />
<glyph unicode="+" horiz-adv-x="1366" d="M145 610v92h492v492h92v-492h492v-92h-492v-491h-92v491h-492z" />
<glyph unicode="," horiz-adv-x="512" d="M180 -184q41 0 53.5 36.5t16.5 147.5h-51v190h114v-223q0 -219 -133 -225v74z" />
<glyph unicode="-" horiz-adv-x="704" d="M70 438v92h563v-92h-563z" />
<glyph unicode="." horiz-adv-x="512" d="M199 0v190h114v-190h-114z" />
<glyph unicode="/" horiz-adv-x="575" d="M0 -29l479 1420h96l-479 -1420h-96z" />
<glyph unicode="0" d="M96 697q0 351 114 533.5t334 182.5t334.5 -182t114.5 -533.5t-114.5 -533.5t-334.5 -182t-334 182t-114 533zM201 698q0 -630 344 -630q172 0 258 166.5t86 467.5t-89 463t-256 162t-255 -161.5t-88 -467.5z" />
<glyph unicode="1" d="M303 0v92h197v1206h-197v93h303v-1299h197v-92h-500z" />
<glyph unicode="2" d="M113 0q-10 121 55 271.5t159.5 244.5t227.5 181t176 130q88 88 88 216.5t-75.5 206t-194.5 77.5q-158 0 -235.5 -101.5t-73.5 -281.5h-95q-8 219 103.5 344t291 125t282 -99.5t102.5 -268t-107 -275.5q-41 -41 -185.5 -135t-232 -182t-135 -198t-47.5 -163h625l10 340h90 l-12 -432h-817z" />
<glyph unicode="3" d="M80 428h96q18 -182 119.5 -271t232.5 -89t234.5 79.5t103.5 237.5q0 92 -40 158.5t-102 96.5q-144 70 -280 38v92q150 -10 245 67.5t95 208t-74.5 206t-196.5 75.5t-187.5 -80t-67.5 -209h-98q2 178 103.5 276.5t260 98.5t262 -101.5t103.5 -254.5q0 -231 -225 -318v-4 q127 -18 217 -105t90 -254t-124 -280.5t-316.5 -113.5t-317.5 123.5t-133 322.5z" />
<glyph unicode="4" d="M90 489l588 914h92v-914h225v-81h-225v-324h123v-84h-371v84h156v324h-537q-14 51 -51 81zM184 489h494v777h-4z" />
<glyph unicode="5" d="M100 391h103q20 -147 103 -235t227 -88t246 101t102 269t-91.5 266.5t-236.5 98.5q-180 0 -309 -172q-29 29 -82 49l63 711h676v-295h-94v192h-498l-49 -528l4 -4q127 133 307 133t297 -126t117 -317q0 -121 -43 -215t-112 -146q-138 -103 -305.5 -103t-289 113.5 t-135.5 295.5z" />
<glyph unicode="6" d="M133 639q0 286 85 510q46 121 139.5 192.5t222.5 71.5q170 0 267 -103.5t107 -281.5h-102q-4 145 -71.5 222t-190.5 77t-203 -82t-112.5 -212t-38.5 -322l4 -4q150 176 354 176q168 0 276.5 -123t108.5 -322t-114.5 -327.5t-297.5 -128.5q-434 0 -434 657zM236 602 q0 -252 82.5 -393t248.5 -141q139 0 223 98t84 259.5t-74.5 266.5t-219.5 105q-88 0 -180 -52.5t-164 -142.5z" />
<glyph unicode="7" d="M131 1081v310h811v-93q-205 -274 -302 -592.5t-79 -613.5h164v-92h-444v92h174q-23 260 75.5 599t307.5 597h-613v-207h-94z" />
<glyph unicode="8" d="M86 385q0 131 77 224t212 126v2q-113 23 -178.5 108t-65.5 204q0 166 117 265t296 99t295.5 -103.5t116.5 -260.5q0 -119 -65.5 -204t-177.5 -108v-4q135 -31 211.5 -123t76.5 -225q0 -176 -128 -289.5t-328.5 -113.5t-329.5 113.5t-129 289.5zM190 390q0 -140 93.5 -231 t254.5 -91t260 87t99 223t-87 225t-258 89t-266.5 -81t-95.5 -221zM229 1045.5q0 -125.5 85 -198.5t230.5 -73t229.5 74t84 210t-98 202.5t-226 66.5t-216.5 -78t-88.5 -203.5z" />
<glyph unicode="9" d="M109 956.5q0 198.5 114.5 327.5t296.5 129q434 0 434 -657q0 -286 -85 -510q-46 -121 -139 -192.5t-222 -71.5q-170 0 -267.5 103.5t-107.5 281.5h103q4 -145 71.5 -222t190.5 -77t202.5 81.5t112.5 212t39 322.5l-4 4q-150 -176 -354 -176q-168 0 -276.5 123 t-108.5 321.5zM213 968.5q0 -161.5 74.5 -266t220.5 -104.5q88 0 180 52.5t164 142.5q0 252 -83 393t-249 141q-139 0 -223 -98.5t-84 -260z" />
<glyph unicode=":" horiz-adv-x="512" d="M199 0v190h114v-190h-114zM199 778v191h114v-191h-114z" />
<glyph unicode=";" horiz-adv-x="512" d="M180 -184q41 0 53.5 36.5t16.5 147.5h-51v190h114v-223q0 -219 -133 -225v74zM199 778v191h114v-191h-114z" />
<glyph unicode="&#x3c;" horiz-adv-x="1366" d="M145 616v82l1074 457v-102l-949 -396l949 -395v-102z" />
<glyph unicode="=" horiz-adv-x="1366" d="M145 381v92h1076v-92h-1076zM145 846v92h1076v-92h-1076z" />
<glyph unicode="&#x3e;" horiz-adv-x="1366" d="M147 160v102l949 395l-949 396v102l1074 -457v-82z" />
<glyph unicode="?" horiz-adv-x="917" d="M61 1034q0 168 104.5 273.5t274.5 105.5t280.5 -107.5t110.5 -262t-96 -265t-274 -104.5l-25 -297h-49l-37 393l15 6q118 -27 243 30q54 25 87.5 84.5t33.5 164t-82 185.5t-209 81t-203.5 -79t-76.5 -208h-97zM350 0v190h115v-190h-115z" />
<glyph unicode="@" horiz-adv-x="1642" d="M0 514q0 178 57.5 337t163 280.5t273.5 193.5t365 72t346 -64.5t235 -170.5q172 -214 172 -494q0 -152 -51.5 -282t-130 -212t-166.5 -128t-168 -46q-156 0 -111 184l-4 4q-145 -188 -340 -188q-150 0 -248 120t-98 302q0 131 53 268t174 242.5t283 105.5q201 0 305 -192 l35 168h125l-170 -803q-14 -63 -6 -92t45 -29q123 0 257 167t134 405q0 184 -82 340q-47 90 -120 157.5t-193.5 110.5t-274.5 43q-342 0 -560 -224.5t-218 -574.5t218 -565t570 -215q438 0 672 313h103q-113 -184 -312.5 -288.5t-464.5 -104.5q-389 0 -628.5 237.5 t-239.5 622.5zM422 427.5q0 -148.5 72.5 -240t183 -91.5t203 99.5t137.5 229.5t45 248t-71.5 197.5t-176 79.5t-182.5 -57t-122 -143q-89 -174 -89 -322.5z" />
<glyph unicode="A" horiz-adv-x="1343" d="M-47 0v92h176l418 1206h-174v93h598v-93h-174l424 -1206h172v-92h-461v92h174l-154 436h-561l-149 -436h182v-92h-471zM424 621h498l-242 704h-14z" />
<glyph unicode="B" horiz-adv-x="1153" d="M35 0v92h178v1206h-178v93h555q229 0 328 -115q86 -101 86 -238q0 -219 -205 -299v-4q276 -78 276 -338q0 -139 -92 -257q-49 -62 -148.5 -101t-234.5 -39h-565zM328 92h266q180 0 273.5 84t93.5 212t-90.5 210t-286.5 82h-256v-588zM328 772h233q156 0 242 75t86 183 t-72 188t-239 80h-250v-526z" />
<glyph unicode="C" horiz-adv-x="1536" d="M127 701.5q0 326.5 198.5 519t481.5 192.5q158 0 294 -64.5t222 -179.5h4v222h94v-445h-96q-29 170 -180.5 268.5t-329.5 98.5q-252 0 -412.5 -172t-160.5 -442.5t163.5 -444.5t417.5 -174q399 0 555 428l90 -51q-70 -229 -238.5 -353t-410.5 -124q-309 0 -500.5 197.5 t-191.5 524z" />
<glyph unicode="D" horiz-adv-x="1449" d="M18 0v92h193v1206h-193v93h553q201 0 343.5 -39t242.5 -140q195 -195 195 -519t-205 -529q-88 -88 -222 -126t-341 -38h-566zM326 92h262q338 0 493.5 156t155.5 444.5t-158 446.5q-90 90 -208.5 124.5t-286.5 34.5h-258v-1206z" />
<glyph unicode="E" horiz-adv-x="1236" d="M31 0v92h178v1206h-178v93h1114v-338h-94v245h-727v-540h577v-92h-577v-574h727v250h94v-342h-1114z" />
<glyph unicode="F" d="M31 0v92h180v1206h-180v93h1056v-340h-92v247h-669v-536h512v-92h-512v-578h184v-92h-479z" />
<glyph unicode="G" horiz-adv-x="1622" d="M102 692q0 311 198 516t497 205q162 0 303 -67.5t233 -190.5h4v236h93v-455h-93q-41 164 -193.5 270.5t-342.5 106.5q-254 0 -419 -172t-165 -442.5t170 -444.5t436 -174q191 0 359 102q84 51 141 142.5t70 210.5h-369v92h487q-2 -309 -201.5 -478t-501.5 -169 t-504 200.5t-202 511.5z" />
<glyph unicode="H" horiz-adv-x="1409" d="M41 0v92h168v1206h-168v93h459v-93h-176v-524h759v524h-178v93h463v-93h-170v-1206h170v-92h-463v92h178v590h-759v-590h176v-92h-459z" />
<glyph unicode="I" horiz-adv-x="575" d="M55 0v92h174v1206h-174v93h465v-93h-176v-1206h176v-92h-465z" />
<glyph unicode="J" horiz-adv-x="555" d="M-139 -311q102 -23 143 -23q129 0 175 55.5t46 167.5v1409h-209v93h523v-93h-199v-1394q0 -180 -87 -259t-255 -79h-6q-71 0 -131 22v101z" />
<glyph unicode="K" horiz-adv-x="1193" d="M29 0v92h182v1206h-182v93h489v-93h-192v-1206h192v-92h-489zM340 731l578 567h-160v93h442v-93h-149l-564 -557l592 -649h148v-92h-496v92h187z" />
<glyph unicode="L" horiz-adv-x="1044" d="M33 0v92h188v1206h-188v93h489v-93h-186v-1206h573v461h109v-553h-985z" />
<glyph unicode="M" horiz-adv-x="1748" d="M39 0v92h180v1206h-180v93h356l430 -1041q27 -59 52 -147h4q14 66 41 131l432 1057h358v-93h-172v-1206h172v-92h-463v92h176v1235h-4l-542 -1327h-23l-537 1327h-4v-1235h166v-92h-442z" />
<glyph unicode="N" horiz-adv-x="1449" d="M20 0v92h187v1206h-187v93h328l799 -1227h4v1134h-195v93h474v-93h-183v-1316h-106l-834 1278h-4v-1168h197v-92h-480z" />
<glyph unicode="O" horiz-adv-x="1599" d="M102 693q0 314 197 517t501 203t501.5 -202.5t197.5 -513t-195.5 -514t-499.5 -203.5t-503 199.5t-199 513.5zM217 696.5q0 -268.5 165 -442.5t419 -174t418.5 174t164.5 442.5t-164.5 442.5t-418.5 174t-419 -174t-165 -442.5z" />
<glyph unicode="P" horiz-adv-x="1130" d="M33 0v92h184v1206h-184v93h602q229 0 343 -116t114 -290t-113 -293t-336 -119h-311v-481h188v-92h-487zM332 666h262q383 0 383 307q0 160 -84 242.5t-287 82.5h-274v-632z" />
<glyph unicode="Q" horiz-adv-x="1599" d="M102 696q0 311 197 514t501 203t501.5 -202.5t197.5 -507t-187.5 -508t-465.5 -211.5v-4q47 -12 120.5 -53.5t141.5 -64.5q41 -13 82 -13q27 0 55 6l-37 -97q-20 -2 -39 -2q-80 0 -149 33q-86 41 -169 87t-175 46t-174 -59l-43 61q84 70 211 70v4q-264 51 -416 239.5 t-152 458.5zM217 700q0 -262 163 -440t417 -178t420.5 176t166.5 442.5t-165.5 439.5t-417.5 173t-418 -175.5t-166 -437.5z" />
<glyph unicode="R" horiz-adv-x="1173" d="M6 0v92h205v1206h-205v93h682q180 0 279.5 -97.5t99.5 -239.5t-83 -231.5t-236 -117.5l278 -613h178v-92h-258l-313 694h-307v-602h194v-92h-514zM326 786h288q338 0 338 261q0 117 -78.5 184t-216.5 67h-331v-512z" />
<glyph unicode="S" horiz-adv-x="1110" d="M88 0v477h94v-47q0 -143 117 -246.5t267 -103.5t244.5 82t94.5 213q0 84 -45 142t-116.5 89t-157.5 54.5t-173 51t-159 66.5t-117 113t-45 178q0 145 113.5 244.5t292.5 99.5q109 0 204 -43t154 -119h4v140h92v-375h-92v28q0 106 -110.5 187.5t-246.5 81.5t-220 -69.5 t-84 -163t45 -148.5t117.5 -85t159.5 -52.5t175 -51t161 -69.5t118 -118t45 -187q0 -166 -127 -277.5t-315 -111.5q-123 0 -229.5 54t-162.5 148h-4v-182h-94z" />
<glyph unicode="T" horiz-adv-x="1173" d="M35 952v439h1106v-439h-94v346h-402v-1206h191v-92h-496v92h190v1206h-401v-346h-94z" />
<glyph unicode="U" horiz-adv-x="1323" d="M6 1298v93h469v-93h-176v-892q0 -162 94 -244t262 -82q367 0 367 321v897h-176v93h469v-93h-178v-892q0 -106 -35 -186.5t-84 -124.5t-116 -71q-109 -45 -235 -45q-67 0 -139 13q-241 43 -316 242q-28 75 -28 172v892h-178z" />
<glyph unicode="V" horiz-adv-x="1343" d="M-45 1298v93h471v-93h-174l438 -1146l422 1146h-170v93h449v-93h-181l-481 -1312h-96l-498 1312h-180z" />
<glyph unicode="W" horiz-adv-x="1941" d="M-41 1298v93h463v-93h-172l330 -1151h4l295 1151h-164v93h524v-93h-168l313 -1151h5l319 1151h-178v93h450v-93h-176l-379 -1312h-90l-366 1335h-4l-344 -1335h-95l-393 1312h-174z" />
<glyph unicode="X" horiz-adv-x="1343" d="M29 0v92h192l383 608l-383 598h-192v93h489v-93h-166l310 -491l313 491h-172v93h467v-93h-185l-364 -579l399 -627h197v-92h-514v92h186l-327 520l-326 -520h182v-92h-489z" />
<glyph unicode="Y" horiz-adv-x="1236" d="M-39 1298v93h496v-93h-183l361 -571l362 571h-180v93h459v-93h-168l-426 -671v-535h199v-92h-506v92h192v535l-426 671h-180z" />
<glyph unicode="Z" horiz-adv-x="1130" d="M55 0v92l852 1206h-714v-245h-93v338h944v-93l-851 -1206h780v266h94v-358h-1012z" />
<glyph unicode="[" horiz-adv-x="704" d="M240 -412v1803h432v-93h-326v-1617h326v-93h-432z" />
<glyph unicode="\" horiz-adv-x="575" d="M0 1391h96l479 -1420h-96z" />
<glyph unicode="]" horiz-adv-x="704" d="M33 -319h325v1617h-325v93h432v-1803h-432v93z" />
<glyph unicode="^" horiz-adv-x="1343" d="M225 877l447 536l448 -536l-65 -56l-383 461l-385 -461z" />
<glyph unicode="_" horiz-adv-x="1024" d="M-12 -154h1048v-102h-1048v102z" />
<glyph unicode="`" horiz-adv-x="681" d="M170 1415h117l205 -317h-78z" />
<glyph unicode="a" horiz-adv-x="1044" d="M104 278.5q0 124.5 101.5 208.5t250 84t302.5 -79v225q0 203 -258 203q-221 0 -299 -166l-80 20q57 117 148 169t255 52t252 -72.5t88 -201.5v-629h160v-92h-266v139q-179 -153 -357 -153h-2q-123 0 -209 84t-86 208.5zM213 273.5q0 -93.5 60.5 -149.5t148.5 -56 t182.5 45.5t153.5 115.5v177q-150 86 -273 86t-197.5 -62.5t-74.5 -156z" />
<glyph unicode="b" horiz-adv-x="1259" d="M29 0v92h176v1206h-176v93h282v-617h4q127 221 383 221q207 0 340 -139t133 -359t-135 -365.5t-344 -145.5q-242 0 -377 202h-4v-188h-282zM309 490q0 -182 105.5 -299t272.5 -117t271.5 118.5t104.5 303t-103.5 298t-267.5 113.5t-273.5 -117.5t-109.5 -299.5z" />
<glyph unicode="c" horiz-adv-x="1044" d="M84 473q0 219 133 364.5t334 145.5t305 -141h4v127h88v-369h-88q0 129 -90 208t-217 79q-160 0 -260 -112.5t-100 -296t102 -297t266 -113.5q234 0 336 231l86 -37q-53 -137 -164.5 -214t-255.5 -77q-211 0 -345 141.5t-134 360.5z" />
<glyph unicode="d" horiz-adv-x="1216" d="M74 487.5q0 217.5 135 362.5t336 145q121 0 220 -57t159 -164h4v524h-189v93h295v-1299h176v-92h-282v188h-4q-132 -202 -371 -202h-2q-207 0 -342 142t-135 359.5zM174 488.5q0 -177.5 107.5 -296t272.5 -118.5t270.5 116.5t105.5 295.5t-110.5 300t-270.5 121 t-267.5 -120.5t-107.5 -298z" />
<glyph unicode="e" horiz-adv-x="1130" d="M82 484q0 224 138 367.5t353 143.5t348.5 -146t137.5 -388h-871q0 -168 119 -286t289 -118q231 0 379 211l84 -39q-72 -121 -199 -189.5t-276 -68.5q-219 0 -360.5 144.5t-141.5 368.5zM190 553h758q-27 168 -128 260t-252 92t-250 -94t-128 -258z" />
<glyph unicode="f" horiz-adv-x="512" d="M47 0v92h150v785h-150v92h150v178q0 133 73.5 199.5t162.5 66.5t149.5 -52t81.5 -142l-97 -15q-20 61 -52 89t-89 28t-90 -42t-33 -114v-196h191v-92h-191v-785h191v-92h-447z" />
<glyph unicode="g" horiz-adv-x="1216" d="M80 477q0 211 140 358.5t341 147.5q246 0 379 -221h4v207h287v-92h-180v-902q0 -119 -48.5 -209t-124.5 -136q-149 -89 -313 -89q-240 0 -377 137l70 70q128 -110 314 -110h3q131 0 239 65q58 35 94 102.5t36 159.5v238h-4q-55 -102 -156.5 -159.5t-226.5 -57.5 q-205 0 -341 140t-136 351zM188 479q0 -176 105.5 -289.5t269.5 -113.5t273.5 116.5t109.5 289.5t-111.5 291t-271.5 118t-267.5 -118t-107.5 -294z" />
<glyph unicode="h" horiz-adv-x="1110" d="M27 0v92h176v1206h-176v93h282v-553q181 157 365 157h2q117 0 190.5 -64.5t73.5 -191.5v-647h158v-92h-436v92h172v625q0 182 -170 182q-78 0 -175.5 -46t-179.5 -122v-639h160v-92h-442z" />
<glyph unicode="i" horiz-adv-x="512" d="M49 0v92h170v785h-170v92h277v-877h166v-92h-443zM160 1330q0 34 24.5 58.5t58.5 24.5t58.5 -24.5t24.5 -57.5t-26 -58.5t-58.5 -25.5t-57 24.5t-24.5 58.5z" />
<glyph unicode="j" horiz-adv-x="491" d="M-82 -322q43 -5 80 -5q99 0 152 36q73 49 73 205v963h-178v92h285v-1086q0 -180 -112 -249q-85 -53 -214 -53q-41 0 -86 5v92zM164 1330q0 34 24.5 58.5t58.5 24.5t58.5 -24.5t24.5 -57.5t-25.5 -58.5t-58.5 -25.5t-57.5 24.5t-24.5 58.5z" />
<glyph unicode="k" horiz-adv-x="1067" d="M27 0v92h178v1206h-178v93h284v-877l510 358v5h-147v92h403v-92h-125l-510 -363l484 -422h170v-92h-211l-574 500v-408h178v-92h-462z" />
<glyph unicode="l" horiz-adv-x="491" d="M16 1298v93h283v-1299h174v-92h-455v92h175v1206h-177z" />
<glyph unicode="m" horiz-adv-x="1728" d="M31 0v92h170v785h-170v92h276v-150q176 164 363 164q94 0 157.5 -45t87.5 -127q188 172 377 172q119 0 185.5 -66.5t66.5 -195.5v-629h156v-92h-428v92h166v619q0 176 -160 176q-176 0 -352 -176v-619h159v-92h-432v92h166v619q0 176 -155 176q-86 0 -167 -40t-190 -136 v-619h160v-92h-436z" />
<glyph unicode="n" d="M14 0v92h179v785h-179v92h285v-150q197 164 365 164q117 0 189.5 -67.5t72.5 -184.5v-639h155v-92h-434v92h172v610q0 184 -162 185q-80 0 -177 -47t-181 -127v-621h158v-92h-443z" />
<glyph unicode="o" horiz-adv-x="1130" d="M84 483q0 219 138 365.5t344 146.5t344.5 -147.5t138.5 -364.5t-138.5 -364.5t-344.5 -147.5t-344 146.5t-138 365.5zM193 483.5q0 -180.5 105 -298t267 -117.5t268.5 117.5t106.5 298t-106.5 298t-268.5 117.5t-267 -117.5t-105 -298z" />
<glyph unicode="p" horiz-adv-x="1216" d="M-4 -342h176v1219h-164v92h271v-205h4q55 102 155.5 160.5t220.5 58.5q201 0 336 -143.5t135 -363.5t-133 -362.5t-344 -142.5q-260 0 -370 222h-4v-535h176v-92h-459v92zM274 480q0 -181 106.5 -296.5t273.5 -115.5t271.5 114.5t104.5 296.5t-108.5 297t-273.5 115 t-269.5 -115t-104.5 -296z" />
<glyph unicode="q" horiz-adv-x="1216" d="M86 475q0 219 134 363.5t337 144.5q119 0 218 -57.5t157 -157.5h4v201h285v-92h-179v-1219h179v-92h-459v92h174v535h-4q-109 -221 -369 -222q-211 0 -344 142.5t-133 361.5zM186 477q0 -182 104.5 -295.5t270.5 -113.5t272.5 116.5t106.5 297t-103.5 295t-269.5 114.5 t-273.5 -116t-107.5 -298z" />
<glyph unicode="r" horiz-adv-x="811" d="M45 0v92h184v785h-184v92h291v-238h4q51 131 167 197q101 57 235 56q21 0 42 -1v-102h-20q-254 0 -343 -101q-48 -55 -66.5 -121.5t-18.5 -164.5v-402h199v-92h-490z" />
<glyph unicode="s" horiz-adv-x="917" d="M78 0v336h94q0 -121 83 -194.5t210 -73.5t202.5 54t75.5 136t-63.5 123t-152.5 57.5t-179 36t-153.5 78.5t-63.5 169t87 185.5t216 75.5q172 0 266 -127h5v113h90v-318h-90q-4 106 -79 175t-183.5 69t-162 -55.5t-53.5 -119.5t45 -102t114 -50.5t147.5 -31t147.5 -40 t114 -80t45 -148.5q0 -129 -100.5 -205.5t-268.5 -76.5q-205 0 -295 135h-4v-121h-94z" />
<glyph unicode="t" horiz-adv-x="532" d="M6 877v92h172v217l107 84v-301h202v-92h-202v-676q0 -47 6 -72t27 -41q16 -13 54 -12q43 0 115 16v-92q-74 -24 -133 -24q-51 0 -91 18q-85 39 -85 162v721h-172z" />
<glyph unicode="u" horiz-adv-x="1110" d="M27 877v92h276v-717q0 -170 158 -170q86 0 183 47t177 129v619h-170v92h277v-877h166v-92h-273v139q-177 -153 -378 -153h-3q-113 0 -178 65.5t-65 173.5v652h-170z" />
<glyph unicode="v" horiz-adv-x="1067" d="M-4 877v92h401v-92h-133l195 -523q61 -166 84 -262h4q35 125 63 205l213 580h-135v92h383v-92h-147l-328 -891h-98l-342 891h-160z" />
<glyph unicode="w" horiz-adv-x="1536" d="M6 877v92h340v-92h-113l154 -502q57 -188 70 -266h4q23 129 67 266l160 502h-113v92h367v-92h-108l137 -437q61 -201 84 -340h4q4 76 80 310l155 467h-127v92h363v-92h-133l-289 -891h-98l-250 841h-4l-242 -841h-104l-277 891h-127z" />
<glyph unicode="x" d="M37 0v92h131l311 408l-301 377h-125v92h361v-92h-115l240 -302l235 302h-104v92h356v-92h-131l-295 -377l330 -408h123v-92h-361v92h119l-272 334l-252 -334h127v-92h-377z" />
<glyph unicode="y" d="M4 877v92h422v-92h-158l295 -721l273 721h-154v92h403v-92h-147l-496 -1311h-270v92h205l135 369l-348 850h-160z" />
<glyph unicode="z" horiz-adv-x="980" d="M92 0v92l682 785h-549v-252h-84v344h750v-92l-682 -785h596v262h86v-354h-799z" />
<glyph unicode="{" horiz-adv-x="681" d="M98 414v131q98 0 145.5 80t47.5 213v245q0 168 84 244t209 66v-111q-80 -2 -114 -19.5t-50.5 -72.5t-16.5 -178v-142q0 -158 -45 -252t-151 -139q106 -45 151 -139t45 -252v-141q0 -123 16.5 -178.5t50.5 -73t114 -19.5v-110q-125 -10 -209 65.5t-84 243.5v246 q0 133 -47 213t-146 80z" />
<glyph unicode="|" horiz-adv-x="1015" d="M455 -459v1850h106v-1850h-106z" />
<glyph unicode="}" horiz-adv-x="681" d="M98 -324q80 2 114 19.5t50.5 73t16.5 178.5v141q0 158 45 252t151 139q-106 45 -151 139.5t-45 251.5v142q0 123 -16.5 178t-50.5 72.5t-114 19.5v111q125 10 209 -66t84 -244v-245q0 -133 47.5 -213t145.5 -80v-131q-98 0 -145.5 -80t-47.5 -213v-246q0 -168 -84 -243.5 t-209 -65.5v110z" />
<glyph unicode="~" horiz-adv-x="1343" d="M135 596v111q166 121 287 120q82 0 260 -78.5t239.5 -78.5t121 27.5t167.5 103.5v-111q-170 -121 -268 -121t-272 79t-242.5 79t-125 -25.5t-167.5 -105.5z" />
<glyph unicode="&#xa1;" horiz-adv-x="512" d="M199 778v191h114v-191h-114zM203 12l24 588h58l24 -588v-434h-106v434z" />
<glyph unicode="&#xa2;" horiz-adv-x="1044" d="M84 473q0 246 170 398.5t383 97.5l102 401h68l-107 -416q100 -35 156 -112h4v127h88v-369h-88q-8 193 -182 264l-205 -788q303 -51 424 223l86 -37q-59 -152 -200.5 -234.5t-331.5 -43.5l-107 -418h-70l113 434q-137 49 -220 178t-83 295zM193 483q0 -131 62.5 -238.5 t158.5 -148.5l200 785q-203 25 -312 -99.5t-109 -298.5z" />
<glyph unicode="&#xa3;" horiz-adv-x="1067" d="M88 162q0 78 55.5 130t137.5 52t165 -57q33 129 -59 354h-276v92h245q-106 227 -106 366.5t95 226.5t253 87t249 -87t95 -249h-100q-4 119 -68.5 184.5t-175 65.5t-177.5 -61.5t-67 -167t107 -365.5h268v-92h-237q74 -197 26 -410q74 -63 108 -91q88 -72 164.5 -72 t113 57t38.5 182h84q2 -152 -61.5 -238.5t-169.5 -86.5q-135 0 -303 168q-78 -168 -222 -168q-80 0 -131 51t-51 129zM164 160q0 -45 29.5 -75t74.5 -30q99 0 160 150q-61 66 -126.5 65.5t-101.5 -33t-36 -77.5z" />
<glyph unicode="&#xa4;" horiz-adv-x="1366" d="M213 293l125 127q-96 131 -96 276t96 279l-125 129l66 67l127 -131q290 200 555 0l131 131l63 -67l-129 -129q98 -121 98 -277q0 -57 -23.5 -137t-74.5 -141l129 -127l-63 -66l-131 127q-127 -96 -277.5 -96t-277.5 96l-127 -127zM338 700.5q0 -143.5 100.5 -245 t243.5 -101.5t244.5 101.5t101.5 245t-101.5 243.5t-244.5 100t-243.5 -100t-100.5 -243.5z" />
<glyph unicode="&#xa5;" horiz-adv-x="1130" d="M0 627v92h449l-113 246h-336v92h301l-121 241h-180v93h496v-93h-183l119 -241h301l119 241h-180v93h458v-93h-167l-117 -241h284v-92h-333l-117 -246h450v-92h-507v-535h198v-92h-506v92h193v535h-508zM467 965l108 -238l111 238h-219z" />
<glyph unicode="&#xa6;" horiz-adv-x="1015" d="M455 289h106v-748h-106v748zM455 645v746h106v-746h-106z" />
<glyph unicode="&#xa7;" horiz-adv-x="897" d="M33 543q0 88 40 155.5t136 145.5q-135 96 -135 260q0 133 99 221t249 88q86 0 163 -27.5t141.5 -108.5t68.5 -206h-97q-6 125 -84.5 190.5t-190.5 65.5t-181.5 -62.5t-69.5 -149.5t51 -148.5t128 -96t166 -75.5t166 -80t128 -109.5t51 -160t-48 -170t-130 -134.5 q139 -84 139 -241.5t-97 -245.5t-256 -88t-261 99t-100 255h100q0 -117 73.5 -191.5t189.5 -74.5t187.5 68.5t71.5 153.5t-52 142.5t-129 91t-168 74.5t-168 82t-129 115t-52 162zM131 563q0 -124 119 -201q73 -46 197 -99.5t167 -78.5q150 100 150 244q0 61 -19.5 103 t-68.5 76t-96.5 55.5t-141.5 60.5t-162 74q-145 -96 -145 -234z" />
<glyph unicode="&#xa8;" horiz-adv-x="681" d="M94 1253.5q0 28.5 20.5 49t49.5 20.5t49 -20.5t20 -49t-20 -49t-49 -20.5t-49.5 20.5t-20.5 49zM449 1253.5q0 28.5 20 49t49 20.5t49.5 -20.5t20.5 -49t-20.5 -49t-49.5 -20.5t-49 20.5t-20 49z" />
<glyph unicode="&#xa9;" horiz-adv-x="1642" d="M57 727q0 317 223.5 540.5t541 223.5t540.5 -223.5t223 -540.5t-223 -540.5t-540.5 -223.5t-541 223.5t-223.5 540.5zM152 727.5q0 -276.5 195.5 -472.5t472 -196t472 196t195.5 472.5t-195.5 472t-472 195.5t-472 -195.5t-195.5 -472zM442 718q0 173 101.5 299 t287.5 126q209 0 322 -219l-96 -29q-70 166 -226 166q-125 0 -202.5 -89t-77.5 -240t74.5 -251t195.5 -100q180 0 250 205l90 -33q-39 -141 -135 -201.5t-201 -60.5q-168 0 -275.5 127t-107.5 300z" />
<glyph unicode="&#xaa;" horiz-adv-x="681" d="M78 983q0 76 65.5 126t162.5 50t196 -49v127q0 129 -168 129q-143 0 -195 -98l-53 12q74 133 250 133q123 0 179 -44t56 -140v-359h103v-55h-172v84q-123 -92 -218.5 -92t-150.5 50t-55 126zM147 978q0 -56 39 -89t96.5 -33t119 27.5t100.5 68.5v107q-94 51 -175 51 t-130.5 -38t-49.5 -94z" />
<glyph unicode="&#xab;" horiz-adv-x="960" d="M66 489l313 490h113l-312 -490l312 -489h-113zM502 489l313 490h113l-312 -490l312 -489h-113z" />
<glyph unicode="&#xac;" horiz-adv-x="1366" d="M145 856v92h1076v-579h-93v487h-983z" />
<glyph unicode="&#xad;" horiz-adv-x="704" d="M70 438v92h563v-92h-563z" />
<glyph unicode="&#xae;" horiz-adv-x="1642" d="M57 727q0 317 223.5 540.5t541 223.5t540.5 -223.5t223 -540.5t-223 -540.5t-540.5 -223.5t-541 223.5t-223.5 540.5zM152 727.5q0 -276.5 195.5 -472.5t472 -196t472 196t195.5 472.5t-195.5 472t-472 195.5t-472 -195.5t-195.5 -472zM512 317v803h338q129 0 201.5 -57 t72.5 -153.5t-65.5 -161t-173.5 -66.5v-4q90 -33 133 -91.5t135 -269.5h-121q-98 227 -161.5 288t-206.5 61h-46v-349h-106zM618 750h134q139 0 198.5 33.5t59.5 114.5t-52.5 110.5t-191.5 29.5h-148v-288z" />
<glyph unicode="&#xaf;" horiz-adv-x="681" d="M12 1229v59h658v-59h-658z" />
<glyph unicode="&#xb0;" horiz-adv-x="811" d="M117 1124.5q0 120.5 85 204.5t203.5 84t203.5 -84t85 -204.5t-85 -204.5t-203.5 -84t-203.5 84t-85 204.5zM199 1125q0 -81 58 -144t144.5 -63t148.5 59t62 136t-55 147.5t-147 70.5t-151.5 -62.5t-59.5 -143.5z" />
<glyph unicode="&#xb1;" horiz-adv-x="1366" d="M145 -37v92h1076v-92h-1076zM145 770v92h492v492h92v-492h492v-92h-492v-491h-92v491h-492z" />
<glyph unicode="&#xb2;" horiz-adv-x="661" d="M51 680q0 203 221 341q60 38 100 59q99 50 99 141q0 61 -42 98t-118 37t-121 -50.5t-38 -144.5h-80q-14 115 58.5 183.5t184 68.5t175 -53t63.5 -138t-46 -130t-135 -92q-206 -110 -235 -259h344l6 172h78l-8 -233h-506z" />
<glyph unicode="&#xb3;" horiz-adv-x="661" d="M55 911h80q25 -182 201 -182q84 0 135 42t51 114t-65.5 114.5t-184.5 26.5v59q92 -10 147.5 32t55.5 103.5t-41 98.5t-107.5 37t-104.5 -39t-36 -109h-84q2 92 62.5 148.5t162 56.5t167 -54t65.5 -138q0 -111 -108 -158q156 -49 155 -182q0 -90 -77.5 -150.5 t-196.5 -60.5t-196 66t-81 175z" />
<glyph unicode="&#xb4;" horiz-adv-x="681" d="M190 1098l205 317h117l-244 -317h-78z" />
<glyph unicode="&#xb5;" horiz-adv-x="1130" d="M213 -434v1403h100v-490q0 -211 76 -304t184 -93q258 0 258 407v480h101v-969h-101v119h-4q-102 -143 -258 -144q-78 0 -136 33t-116 111h-4v-553h-100z" />
<glyph unicode="&#xb6;" horiz-adv-x="1323" d="M96 979q0 184 130 298t349 114h691v-138h-195v-1687h-129v1687h-266v-1687h-131v979q-213 0 -331 125t-118 309z" />
<glyph unicode="&#xb7;" horiz-adv-x="598" d="M242 588v190h114v-190h-114z" />
<glyph unicode="&#xb8;" horiz-adv-x="681" d="M147 -369q98 -8 169 17.5t71 93.5q0 80 -127 94l29 150h65l-14 -74q70 -8 109.5 -50t39.5 -108q0 -197 -342 -188v65z" />
<glyph unicode="&#xb9;" horiz-adv-x="661" d="M172 680v59h115v602h-115v60h203v-662h114v-59h-317z" />
<glyph unicode="&#xba;" horiz-adv-x="724" d="M49 1106q0 131 90 219t223.5 88t223.5 -88t90 -219t-89 -219t-223 -88t-224.5 88t-90.5 219zM121 1105.5q0 -108.5 68.5 -179t174 -70.5t174 70.5t68.5 179t-68.5 179.5t-173.5 71t-174 -71t-69 -179.5z" />
<glyph unicode="&#xbb;" horiz-adv-x="960" d="M33 0l311 489l-311 490h112l314 -490l-314 -489h-112zM469 0l311 489l-311 490h113l313 -490l-313 -489h-113z" />
<glyph unicode="&#xbc;" horiz-adv-x="1728" d="M174 680v59h115v602h-115v60h203v-662h115v-59h-318zM256 0l979 1391h72l-979 -1391h-72zM891 254l346 473h80v-465h133v-53h-133v-154h72v-55h-242v55h90v154h-313q-8 31 -33 45zM977 262h260v350h-4z" />
<glyph unicode="&#xbd;" horiz-adv-x="1728" d="M172 680v59h115v602h-115v60h203v-662h114v-59h-317zM256 0l979 1391h72l-979 -1391h-72zM1020 0q0 202 220 341q60 38 100 58.5t70 56.5t30 91t-42 92t-118 37t-121 -50.5t-39 -144.5h-80q-14 115 58.5 183.5t184.5 68.5t175.5 -53t63.5 -138t-46 -130t-136 -92 q-205 -109 -234 -259h344l6 172h78l-8 -233h-506z" />
<glyph unicode="&#xbe;" horiz-adv-x="1728" d="M129 911h80q25 -182 201 -182q84 0 135 42t51 114t-65.5 114.5t-184.5 26.5v59q92 -10 147.5 32t55.5 103.5t-41 98.5t-108 37t-104.5 -39t-35.5 -109h-84q2 92 62.5 148.5t161.5 56.5t167 -54t66 -138q0 -111 -109 -158q156 -49 156 -182q0 -90 -78 -150.5t-196.5 -60.5 t-195.5 66t-81 175zM410 0l979 1391h71l-979 -1391h-71zM1044 254l347 473h79v-465h134v-53h-134v-154h72v-55h-242v55h91v154h-314q-8 31 -33 45zM1130 262h261v350h-5z" />
<glyph unicode="&#xbf;" horiz-adv-x="917" d="M86 -74.5q0 154.5 96.5 265t274.5 104.5l24 297h49l37 -393l-14 -6q-118 27 -244 -31q-53 -25 -87 -84.5t-34 -164t82 -185t209 -80.5t204 78.5t77 207.5h96q0 -168 -104.5 -273t-274.5 -105t-280.5 107.5t-110.5 262zM453 778v191h114v-191h-114z" />
<glyph unicode="&#xc0;" horiz-adv-x="1343" d="M-47 0v92h176l418 1206h-174v93h598v-93h-174l424 -1206h172v-92h-461v92h174l-154 436h-561l-149 -436h182v-92h-471zM424 621h498l-242 704h-14zM502 1831h116l205 -318h-78z" />
<glyph unicode="&#xc1;" horiz-adv-x="1343" d="M-47 0v92h176l418 1206h-174v93h598v-93h-174l424 -1206h172v-92h-461v92h174l-154 436h-561l-149 -436h182v-92h-471zM424 621h498l-242 704h-14zM522 1513l205 318h117l-244 -318h-78z" />
<glyph unicode="&#xc2;" horiz-adv-x="1343" d="M-47 0v92h176l418 1206h-174v93h598v-93h-174l424 -1206h172v-92h-461v92h174l-154 436h-561l-149 -436h182v-92h-471zM371 1522l241 297h103l260 -297h-76l-235 207l-222 -207h-71zM424 621h498l-242 704h-14z" />
<glyph unicode="&#xc3;" horiz-adv-x="1343" d="M-47 0v92h176l418 1206h-174v93h598v-93h-174l424 -1206h172v-92h-461v92h174l-154 436h-561l-149 -436h182v-92h-471zM342 1581q57 180 180 180q55 0 153.5 -49t153.5 -49q78 0 121 96h54q-20 -82 -71.5 -130t-113 -48t-160 49t-143.5 49q-82 0 -119 -98h-55zM424 621 h498l-242 704h-14z" />
<glyph unicode="&#xc4;" horiz-adv-x="1343" d="M-47 0v92h176l418 1206h-174v93h598v-93h-174l424 -1206h172v-92h-461v92h174l-154 436h-561l-149 -436h182v-92h-471zM424 621h498l-242 704h-14zM426 1669q0 29 20.5 49.5t49 20.5t49 -20.5t20.5 -49.5t-20.5 -49.5t-49 -20.5t-49 20.5t-20.5 49.5zM780 1669 q0 29 20.5 49.5t49.5 20.5t49.5 -20.5t20.5 -49.5t-20.5 -49.5t-49.5 -20.5t-49.5 20.5t-20.5 49.5z" />
<glyph unicode="&#xc5;" horiz-adv-x="1343" d="M-47 0v92h176l418 1206h-174v93h598v-93h-174l424 -1206h172v-92h-461v92h174l-154 436h-561l-149 -436h182v-92h-471zM424 621h498l-242 704h-14zM485 1669q0 78 54.5 132t132.5 54t133 -54t55 -132t-55 -133t-133 -55t-132.5 55t-54.5 133zM547 1668q0 -52 37 -89 t89 -37t89 38t37 89t-37 88t-90.5 37t-89 -37t-35.5 -89z" />
<glyph unicode="&#xc6;" horiz-adv-x="1921" d="M-125 0v92h148l663 1206h-229v93h1372v-338h-94v245h-731v-538h583v-92h-583v-576h731v250h94v-342h-1172v92h232v576h-432l-320 -576h162v-92h-424zM504 760h385v538h-88z" />
<glyph unicode="&#xc7;" horiz-adv-x="1536" d="M127 692q0 336 198.5 528.5t481.5 192.5q158 0 294 -64.5t222 -179.5h4v222h94v-445h-96q-29 170 -180.5 268.5t-329.5 98.5q-252 0 -412.5 -172t-160.5 -442.5t163.5 -444.5t417.5 -174q399 0 555 428l90 -51q-70 -229 -238.5 -353t-410.5 -124q-41 0 -59 2l-10 -50 q70 -8 109.5 -50t39.5 -107q0 -102 -92 -147.5t-250 -41.5v66q98 -8 169 17.5t71 92.5q0 81 -127 95l24 133q-258 39 -412.5 229.5t-154.5 472.5z" />
<glyph unicode="&#xc8;" horiz-adv-x="1236" d="M31 0v92h178v1206h-178v93h1114v-338h-94v245h-727v-540h577v-92h-577v-574h727v250h94v-342h-1114zM449 1831h116l205 -318h-78z" />
<glyph unicode="&#xc9;" horiz-adv-x="1236" d="M31 0v92h178v1206h-178v93h1114v-338h-94v245h-727v-540h577v-92h-577v-574h727v250h94v-342h-1114zM469 1513l205 318h117l-244 -318h-78z" />
<glyph unicode="&#xca;" horiz-adv-x="1236" d="M31 0v92h178v1206h-178v93h1114v-338h-94v245h-727v-540h577v-92h-577v-574h727v250h94v-342h-1114zM317 1522l242 297h103l260 -297h-76l-236 207l-221 -207h-72z" />
<glyph unicode="&#xcb;" horiz-adv-x="1236" d="M31 0v92h178v1206h-178v93h1114v-338h-94v245h-727v-540h577v-92h-577v-574h727v250h94v-342h-1114zM373 1669q0 29 20.5 49.5t49 20.5t49 -20.5t20.5 -49.5t-20.5 -49.5t-49 -20.5t-49 20.5t-20.5 49.5zM727 1669q0 29 20.5 49.5t49 20.5t49 -20.5t20.5 -49.5 t-20.5 -49.5t-49 -20.5t-49 20.5t-20.5 49.5z" />
<glyph unicode="&#xcc;" horiz-adv-x="575" d="M55 0v92h174v1206h-174v93h465v-93h-176v-1206h176v-92h-465zM117 1831h116l205 -318h-78z" />
<glyph unicode="&#xcd;" horiz-adv-x="575" d="M55 0v92h174v1206h-174v93h465v-93h-176v-1206h176v-92h-465zM137 1513l205 318h117l-244 -318h-78z" />
<glyph unicode="&#xce;" horiz-adv-x="575" d="M-14 1522l241 297h103l260 -297h-76l-235 207l-222 -207h-71zM55 0v92h174v1206h-174v93h465v-93h-176v-1206h176v-92h-465z" />
<glyph unicode="&#xcf;" horiz-adv-x="575" d="M41 1669q0 29 20.5 49.5t49 20.5t49 -20.5t20.5 -49.5t-20.5 -49.5t-49 -20.5t-49 20.5t-20.5 49.5zM55 0v92h174v1206h-174v93h465v-93h-176v-1206h176v-92h-465zM395 1669q0 29 20.5 49.5t49.5 20.5t49.5 -20.5t20.5 -49.5t-20.5 -49.5t-49.5 -20.5t-49.5 20.5 t-20.5 49.5z" />
<glyph unicode="&#xd0;" horiz-adv-x="1449" d="M18 0v92h193v559h-193v92h193v555h-193v93h553q201 0 343.5 -39t242.5 -140q195 -195 195 -519t-205 -529q-88 -88 -222 -126t-341 -38h-566zM326 92h262q338 0 493.5 156t155.5 444.5t-158 446.5q-90 90 -208.5 124.5t-286.5 34.5h-258v-555h426v-92h-426v-559z" />
<glyph unicode="&#xd1;" horiz-adv-x="1449" d="M20 0v92h187v1206h-187v93h328l799 -1227h4v1134h-195v93h474v-93h-183v-1316h-106l-834 1278h-4v-1168h197v-92h-480zM395 1581q57 180 180 180q55 0 153.5 -49t154.5 -49q78 0 121 96h53q-20 -82 -71.5 -130t-113 -48t-160 49t-143.5 49q-81 0 -118 -98h-56z" />
<glyph unicode="&#xd2;" horiz-adv-x="1599" d="M102 693q0 314 197 517t501 203t501.5 -202.5t197.5 -513t-195.5 -514t-499.5 -203.5t-503 199.5t-199 513.5zM217 696.5q0 -268.5 165 -442.5t419 -174t418.5 174t164.5 442.5t-164.5 442.5t-418.5 174t-419 -174t-165 -442.5zM629 1831h116l205 -318h-78z" />
<glyph unicode="&#xd3;" horiz-adv-x="1599" d="M102 693q0 314 197 517t501 203t501.5 -202.5t197.5 -513t-195.5 -514t-499.5 -203.5t-503 199.5t-199 513.5zM217 696.5q0 -268.5 165 -442.5t419 -174t418.5 174t164.5 442.5t-164.5 442.5t-418.5 174t-419 -174t-165 -442.5zM649 1513l205 318h117l-244 -318h-78z" />
<glyph unicode="&#xd4;" horiz-adv-x="1599" d="M102 693q0 314 197 517t501 203t501.5 -202.5t197.5 -513t-195.5 -514t-499.5 -203.5t-503 199.5t-199 513.5zM217 696.5q0 -268.5 165 -442.5t419 -174t418.5 174t164.5 442.5t-164.5 442.5t-418.5 174t-419 -174t-165 -442.5zM498 1522l241 297h103l260 -297h-76 l-235 207l-222 -207h-71z" />
<glyph unicode="&#xd5;" horiz-adv-x="1599" d="M102 693q0 314 197 517t501 203t501.5 -202.5t197.5 -513t-195.5 -514t-499.5 -203.5t-503 199.5t-199 513.5zM217 696.5q0 -268.5 165 -442.5t419 -174t418.5 174t164.5 442.5t-164.5 442.5t-418.5 174t-419 -174t-165 -442.5zM469 1581q57 180 180 180q55 0 153.5 -49 t153.5 -49q78 0 121 96h53q-20 -82 -71 -130t-112.5 -48t-160 49t-143.5 49q-82 0 -119 -98h-55z" />
<glyph unicode="&#xd6;" horiz-adv-x="1599" d="M102 693q0 314 197 517t501 203t501.5 -202.5t197.5 -513t-195.5 -514t-499.5 -203.5t-503 199.5t-199 513.5zM217 696.5q0 -268.5 165 -442.5t419 -174t418.5 174t164.5 442.5t-164.5 442.5t-418.5 174t-419 -174t-165 -442.5zM553 1669q0 29 20.5 49.5t49 20.5 t49 -20.5t20.5 -49.5t-20.5 -49.5t-49 -20.5t-49 20.5t-20.5 49.5zM907 1669q0 29 20.5 49.5t49.5 20.5t49.5 -20.5t20.5 -49.5t-20.5 -49.5t-49.5 -20.5t-49.5 20.5t-20.5 49.5z" />
<glyph unicode="&#xd7;" horiz-adv-x="1368" d="M195 236l421 421l-421 422l65 66l422 -424l424 424l65 -66l-421 -422l421 -421l-65 -66l-422 422l-424 -422z" />
<glyph unicode="&#xd8;" horiz-adv-x="1599" d="M102 692q0 281 172 492q84 104 220.5 166.5t290 62.5t252.5 -34t214 -122l127 146l54 -47l-132 -148q199 -193 199 -508q0 -275 -168 -490q-82 -104 -220 -167t-301 -63t-260 33.5t-194 117.5l-127 -141l-53 45l127 145q-201 207 -201 512zM217 688q0 -129 36 -228.5 t122 -197.5l805 916q-98 76 -179 105.5t-194 29.5q-262 0 -426 -174t-164 -451zM428 213q147 -133 365 -133q154 0 273.5 59.5t185.5 155.5q132 190 132 405q1 264 -151 428z" />
<glyph unicode="&#xd9;" horiz-adv-x="1323" d="M6 1298v93h469v-93h-176v-892q0 -162 94 -244t262 -82q367 0 367 321v897h-176v93h469v-93h-178v-892q0 -106 -35 -186.5t-84 -124.5t-116 -71q-168 -69 -374 -32q-241 43 -316 242q-28 75 -28 172v892h-178zM492 1831h116l205 -318h-78z" />
<glyph unicode="&#xda;" horiz-adv-x="1323" d="M6 1298v93h469v-93h-176v-892q0 -162 94 -244t262 -82q367 0 367 321v897h-176v93h469v-93h-178v-892q0 -106 -35 -186.5t-84 -124.5t-116 -71q-168 -69 -374 -32q-241 43 -316 242q-28 75 -28 172v892h-178zM512 1513l205 318h117l-244 -318h-78z" />
<glyph unicode="&#xdb;" horiz-adv-x="1323" d="M6 1298v93h469v-93h-176v-892q0 -162 94 -244t262 -82q367 0 367 321v897h-176v93h469v-93h-178v-892q0 -106 -35 -186.5t-84 -124.5t-116 -71q-168 -69 -374 -32q-241 43 -316 242q-28 75 -28 172v892h-178zM360 1522l242 297h103l260 -297h-76l-236 207l-221 -207h-72z " />
<glyph unicode="&#xdc;" horiz-adv-x="1323" d="M6 1298v93h469v-93h-176v-892q0 -162 94 -244t262 -82q367 0 367 321v897h-176v93h469v-93h-178v-892q0 -106 -35 -186.5t-84 -124.5t-116 -71q-168 -69 -374 -32q-241 43 -316 242q-28 75 -28 172v892h-178zM416 1669q0 29 20.5 49.5t49 20.5t49 -20.5t20.5 -49.5 t-20.5 -49.5t-49 -20.5t-49 20.5t-20.5 49.5zM770 1669q0 29 20.5 49.5t49 20.5t49 -20.5t20.5 -49.5t-20.5 -49.5t-49 -20.5t-49 20.5t-20.5 49.5z" />
<glyph unicode="&#xdd;" horiz-adv-x="1236" d="M-39 1298v93h496v-93h-183l361 -571l362 571h-180v93h459v-93h-168l-426 -671v-535h199v-92h-506v92h192v535l-426 671h-180zM469 1513l205 318h117l-244 -318h-78z" />
<glyph unicode="&#xde;" horiz-adv-x="1130" d="M33 0v92h184v1206h-184v93h487v-93h-188v-194h303q229 0 343 -116t114 -290t-113 -292.5t-336 -118.5h-311v-195h188v-92h-487zM332 379h262q383 0 383 307q0 166 -90 246t-281 80h-274v-633z" />
<glyph unicode="&#xdf;" horiz-adv-x="1259" d="M33 0v92h174v938q0 176 110.5 279.5t306 103.5t309.5 -93t114 -245q0 -96 -49.5 -165.5t-139.5 -96.5v-4q150 -27 234 -134.5t84 -280t-110 -290.5t-282 -118q-66 0 -116 14v92q33 -20 129.5 -20t185 86t88.5 243q0 145 -80 245q-92 116 -323 116v82q143 -6 208.5 66.5 t65.5 175.5t-85 172t-226 69q-217 0 -288 -143q-30 -60 -30 -148v-944h154v-92h-434z" />
<glyph unicode="&#xe0;" horiz-adv-x="1044" d="M104 278.5q0 124.5 101.5 208.5t250 84t302.5 -79v225q0 203 -258 203q-221 0 -299 -166l-80 20q57 117 148 169t255 52t252 -72.5t88 -201.5v-629h160v-92h-266v139q-180 -154 -359 -153q-123 0 -209 84t-86 208.5zM213 273.5q0 -93.5 60.5 -149.5t148.5 -56t182.5 45.5 t153.5 115.5v177q-150 86 -273 86t-197.5 -62.5t-74.5 -156zM352 1415h117l205 -317h-78z" />
<glyph unicode="&#xe1;" horiz-adv-x="1044" d="M104 278.5q0 124.5 101.5 208.5t250 84t302.5 -79v225q0 203 -258 203q-221 0 -299 -166l-80 20q57 117 148 169t255 52t252 -72.5t88 -201.5v-629h160v-92h-266v139q-180 -154 -359 -153q-123 0 -209 84t-86 208.5zM213 273.5q0 -93.5 60.5 -149.5t148.5 -56t182.5 45.5 t153.5 115.5v177q-150 86 -273 86t-197.5 -62.5t-74.5 -156zM373 1098l205 317h116l-243 -317h-78z" />
<glyph unicode="&#xe2;" horiz-adv-x="1044" d="M104 278.5q0 124.5 101.5 208.5t250 84t302.5 -79v225q0 203 -258 203q-221 0 -299 -166l-80 20q57 117 148 169t255 52t252 -72.5t88 -201.5v-629h160v-92h-266v139q-180 -154 -359 -153q-123 0 -209 84t-86 208.5zM213 273.5q0 -93.5 60.5 -149.5t148.5 -56t182.5 45.5 t153.5 115.5v177q-150 86 -273 86t-197.5 -62.5t-74.5 -156zM221 1106l242 297h102l260 -297h-75l-236 207l-221 -207h-72z" />
<glyph unicode="&#xe3;" horiz-adv-x="1044" d="M104 278.5q0 124.5 101.5 208.5t250 84t302.5 -79v225q0 203 -258 203q-221 0 -299 -166l-80 20q57 117 148 169t255 52t252 -72.5t88 -201.5v-629h160v-92h-266v139q-180 -154 -359 -153q-123 0 -209 84t-86 208.5zM193 1165q57 180 180 181q55 0 153.5 -49.5 t153.5 -49.5q78 0 121 96h53q-20 -82 -71.5 -130t-112.5 -48t-159.5 49.5t-143.5 49.5q-82 -1 -119 -99h-55zM213 273.5q0 -93.5 60.5 -149.5t148.5 -56t182.5 45.5t153.5 115.5v177q-150 86 -273 86t-197.5 -62.5t-74.5 -156z" />
<glyph unicode="&#xe4;" horiz-adv-x="1044" d="M104 278.5q0 124.5 101.5 208.5t250 84t302.5 -79v225q0 203 -258 203q-221 0 -299 -166l-80 20q57 117 148 169t255 52t252 -72.5t88 -201.5v-629h160v-92h-266v139q-180 -154 -359 -153q-123 0 -209 84t-86 208.5zM213 273.5q0 -93.5 60.5 -149.5t148.5 -56t182.5 45.5 t153.5 115.5v177q-150 86 -273 86t-197.5 -62.5t-74.5 -156zM276 1253.5q0 28.5 20.5 49t49.5 20.5t49.5 -20.5t20.5 -49t-20.5 -49t-49.5 -20.5t-49.5 20.5t-20.5 49zM631 1253.5q0 28.5 20.5 49t49 20.5t49 -20.5t20.5 -49t-20.5 -49t-49 -20.5t-49 20.5t-20.5 49z" />
<glyph unicode="&#xe5;" horiz-adv-x="1044" d="M104 278.5q0 124.5 101.5 208.5t250 84t302.5 -79v225q0 203 -258 203q-221 0 -299 -166l-80 20q57 117 148 169t255 52t252 -72.5t88 -201.5v-629h160v-92h-266v139q-180 -154 -359 -153q-123 0 -209 84t-86 208.5zM213 273.5q0 -93.5 60.5 -149.5t148.5 -56t182.5 45.5 t153.5 115.5v177q-150 86 -273 86t-197.5 -62.5t-74.5 -156zM336 1253.5q0 77.5 54 132t132 54.5t133.5 -54.5t55.5 -132t-55.5 -133t-133.5 -55.5t-132 55.5t-54 133zM397 1253.5q0 -53.5 37 -90.5t88 -37t89 37t38 89t-37 89t-89 37t-89 -35.5t-37 -89z" />
<glyph unicode="&#xe6;" horiz-adv-x="1771" d="M111 272q0 131 96 213t250 82t295 -86v232q0 203 -260 202q-207 0 -283 -163l-84 22q41 102 142.5 161.5t238.5 59.5q289 0 340 -221q139 221 389 221q190 0 326.5 -139t136.5 -395h-852q14 -182 123.5 -290t279.5 -108q229 0 381 205l82 -43q-66 -102 -181.5 -178 t-279.5 -76q-268 0 -413 222q-199 -221 -412 -222q-137 0 -226 85t-89 216zM213 269.5q0 -95.5 62.5 -157t156.5 -61.5q168 0 320 162v186q-172 90 -284 90t-183.5 -62t-71.5 -157.5zM856 553h737q-8 154 -114.5 253t-246.5 99t-250 -95t-126 -257z" />
<glyph unicode="&#xe7;" horiz-adv-x="1044" d="M84 485.5q0 206.5 133 352t334 145.5t305 -141h4v127h88v-369h-88q0 129 -90 208t-217 79q-160 0 -260 -112.5t-100 -296t102 -297t266 -113.5q233 0 336 231l86 -37q-53 -137 -164.5 -214t-255.5 -77h-26l-13 -59q70 -8 110 -50t40 -108q0 -102 -92.5 -147t-249.5 -41 v65q98 -8 168.5 17.5t70.5 93.5q0 80 -127 94l29 146q-176 29 -282.5 163t-106.5 340.5z" />
<glyph unicode="&#xe8;" horiz-adv-x="1130" d="M82 484q0 224 138 367.5t353 143.5t348.5 -146t137.5 -388h-871q0 -168 119 -286t289 -118q231 0 379 211l84 -39q-72 -121 -199 -189.5t-276 -68.5q-219 0 -360.5 144.5t-141.5 368.5zM190 553h758q-27 168 -128 260t-252 92t-250 -94t-128 -258zM395 1415h117l205 -317 h-78z" />
<glyph unicode="&#xe9;" horiz-adv-x="1130" d="M82 484q0 224 138 367.5t353 143.5t348.5 -146t137.5 -388h-871q0 -168 119 -286t289 -118q231 0 379 211l84 -39q-72 -121 -199 -189.5t-276 -68.5q-219 0 -360.5 144.5t-141.5 368.5zM190 553h758q-27 168 -128 260t-252 92t-250 -94t-128 -258zM416 1098l205 317h116 l-243 -317h-78z" />
<glyph unicode="&#xea;" horiz-adv-x="1130" d="M82 484q0 224 138 367.5t353 143.5t348.5 -146t137.5 -388h-871q0 -168 119 -286t289 -118q231 0 379 211l84 -39q-72 -121 -199 -189.5t-276 -68.5q-219 0 -360.5 144.5t-141.5 368.5zM190 553h758q-27 168 -128 260t-252 92t-250 -94t-128 -258zM264 1106l242 297h102 l260 -297h-75l-236 207l-221 -207h-72z" />
<glyph unicode="&#xeb;" horiz-adv-x="1130" d="M82 484q0 224 138 367.5t353 143.5t348.5 -146t137.5 -388h-871q0 -168 119 -286t289 -118q231 0 379 211l84 -39q-72 -121 -199 -189.5t-276 -68.5q-219 0 -360.5 144.5t-141.5 368.5zM190 553h758q-27 168 -128 260t-252 92t-250 -94t-128 -258zM319 1253.5 q0 28.5 20.5 49t49.5 20.5t49.5 -20.5t20.5 -49t-20.5 -49t-49.5 -20.5t-49.5 20.5t-20.5 49zM674 1253.5q0 28.5 20.5 49t49 20.5t49 -20.5t20.5 -49t-20.5 -49t-49 -20.5t-49 20.5t-20.5 49z" />
<glyph unicode="&#xec;" horiz-adv-x="512" d="M23 1415h116l205 -317h-78zM49 0v92h172v785h-172v92h279v-877h164v-92h-443z" />
<glyph unicode="&#xed;" horiz-adv-x="512" d="M49 0v92h172v785h-172v92h279v-877h164v-92h-443zM106 1098l205 317h117l-244 -317h-78z" />
<glyph unicode="&#xee;" horiz-adv-x="512" d="M-45 1106l242 297h102l260 -297h-76l-235 207l-221 -207h-72zM49 0v92h172v785h-172v92h279v-877h164v-92h-443z" />
<glyph unicode="&#xef;" horiz-adv-x="512" d="M10 1253.5q0 28.5 20.5 49t49.5 20.5t49.5 -20.5t20.5 -49t-20.5 -49t-49.5 -20.5t-49.5 20.5t-20.5 49zM49 0v92h172v785h-172v92h279v-877h164v-92h-443zM365 1253.5q0 28.5 20.5 49t49 20.5t49 -20.5t20.5 -49t-20.5 -49t-49 -20.5t-49 20.5t-20.5 49z" />
<glyph unicode="&#xf0;" horiz-adv-x="1153" d="M94 479q0 221 139.5 368.5t343 147.5t328.5 -157l4 4q-25 63 -46 106t-79.5 114t-138.5 132l-266 -127l-76 53l266 127q-121 76 -225 117l113 55q133 -57 223 -121l254 121l76 -53l-258 -121q150 -125 228.5 -298t78.5 -369q0 -289 -133 -448t-343 -159t-349.5 143.5 t-139.5 364.5zM203 483.5q0 -180.5 105.5 -298t268 -117.5t268 122.5t105.5 321.5q0 158 -102.5 272.5t-268.5 114.5t-271 -117.5t-105 -298z" />
<glyph unicode="&#xf1;" d="M14 0v92h179v785h-179v92h285v-150q197 164 365 164q117 0 189.5 -67.5t72.5 -184.5v-639h155v-92h-434v92h172v610q0 184 -162 185q-80 0 -177 -47t-181 -127v-621h158v-92h-443zM213 1165q57 180 180 181q55 0 153.5 -49.5t153.5 -49.5q78 0 121 96h53 q-20 -82 -71 -130t-112.5 -48t-160 49.5t-143.5 49.5q-82 -1 -119 -99h-55z" />
<glyph unicode="&#xf2;" horiz-adv-x="1130" d="M84 483q0 219 138 365.5t344 146.5t344.5 -147.5t138.5 -364.5t-138.5 -364.5t-344.5 -147.5t-344 146.5t-138 365.5zM193 483.5q0 -180.5 105 -298t267 -117.5t268.5 117.5t106.5 298t-106.5 298t-268.5 117.5t-267 -117.5t-105 -298zM395 1415h117l205 -317h-78z" />
<glyph unicode="&#xf3;" horiz-adv-x="1130" d="M84 483q0 219 138 365.5t344 146.5t344.5 -147.5t138.5 -364.5t-138.5 -364.5t-344.5 -147.5t-344 146.5t-138 365.5zM193 483.5q0 -180.5 105 -298t267 -117.5t268.5 117.5t106.5 298t-106.5 298t-268.5 117.5t-267 -117.5t-105 -298zM416 1098l205 317h116l-243 -317 h-78z" />
<glyph unicode="&#xf4;" horiz-adv-x="1130" d="M84 483q0 219 138 365.5t344 146.5t344.5 -147.5t138.5 -364.5t-138.5 -364.5t-344.5 -147.5t-344 146.5t-138 365.5zM193 483.5q0 -180.5 105 -298t267 -117.5t268.5 117.5t106.5 298t-106.5 298t-268.5 117.5t-267 -117.5t-105 -298zM264 1106l242 297h102l260 -297 h-75l-236 207l-221 -207h-72z" />
<glyph unicode="&#xf5;" horiz-adv-x="1130" d="M84 483q0 219 138 365.5t344 146.5t344.5 -147.5t138.5 -364.5t-138.5 -364.5t-344.5 -147.5t-344 146.5t-138 365.5zM193 483.5q0 -180.5 105 -298t267 -117.5t268.5 117.5t106.5 298t-106.5 298t-268.5 117.5t-267 -117.5t-105 -298zM236 1165q57 180 180 181 q55 0 153.5 -49.5t153.5 -49.5q78 0 121 96h53q-20 -82 -71.5 -130t-112.5 -48t-159.5 49.5t-143.5 49.5q-82 -1 -119 -99h-55z" />
<glyph unicode="&#xf6;" horiz-adv-x="1130" d="M84 483q0 219 138 365.5t344 146.5t344.5 -147.5t138.5 -364.5t-138.5 -364.5t-344.5 -147.5t-344 146.5t-138 365.5zM193 483.5q0 -180.5 105 -298t267 -117.5t268.5 117.5t106.5 298t-106.5 298t-268.5 117.5t-267 -117.5t-105 -298zM319 1253.5q0 28.5 20.5 49 t49.5 20.5t49.5 -20.5t20.5 -49t-20.5 -49t-49.5 -20.5t-49.5 20.5t-20.5 49zM674 1253.5q0 28.5 20.5 49t49 20.5t49 -20.5t20.5 -49t-20.5 -49t-49 -20.5t-49 20.5t-20.5 49z" />
<glyph unicode="&#xf7;" horiz-adv-x="1368" d="M145 612v93h1076v-93h-1076zM618 243.5q0 26.5 18.5 46t45.5 19.5t46.5 -19.5t19.5 -46t-19.5 -45t-46.5 -18.5t-45.5 18.5t-18.5 45zM618 1071q0 27 18.5 46.5t45.5 19.5t46.5 -19.5t19.5 -46.5t-19.5 -45t-46.5 -18t-45.5 18t-18.5 45z" />
<glyph unicode="&#xf8;" horiz-adv-x="1130" d="M74 -33l139 162q-127 143 -127 358t138 361.5t327.5 146.5t318.5 -106l140 160l53 -48l-141 -163q129 -154 129 -363t-138.5 -356.5t-343.5 -147.5q-170 0 -303 107l-135 -158zM195 495q0 -169 86 -288l524 604q-100 88 -250 88t-255 -117.5t-105 -286.5zM332 154 q104 -86 250.5 -86t253 117.5t106.5 286.5t-88 286z" />
<glyph unicode="&#xf9;" horiz-adv-x="1110" d="M27 877v92h276v-717q0 -170 158 -170q86 0 183 47t177 129v619h-170v92h277v-877h166v-92h-273v139q-178 -154 -381 -153q-113 0 -178 65.5t-65 173.5v652h-170zM324 1415h116l205 -317h-78z" />
<glyph unicode="&#xfa;" horiz-adv-x="1110" d="M27 877v92h276v-717q0 -170 158 -170q86 0 183 47t177 129v619h-170v92h277v-877h166v-92h-273v139q-178 -154 -381 -153q-113 0 -178 65.5t-65 173.5v652h-170zM406 1098l204 317h117l-244 -317h-77z" />
<glyph unicode="&#xfb;" horiz-adv-x="1110" d="M27 877v92h276v-717q0 -170 158 -170q86 0 183 47t177 129v619h-170v92h277v-877h166v-92h-273v139q-178 -154 -381 -153q-113 0 -178 65.5t-65 173.5v652h-170zM254 1106l242 297h102l260 -297h-76l-235 207l-221 -207h-72z" />
<glyph unicode="&#xfc;" horiz-adv-x="1110" d="M27 877v92h276v-717q0 -170 158 -170q86 0 183 47t177 129v619h-170v92h277v-877h166v-92h-273v139q-178 -154 -381 -153q-113 0 -178 65.5t-65 173.5v652h-170zM309 1253.5q0 28.5 20.5 49t49.5 20.5t49.5 -20.5t20.5 -49t-20.5 -49t-49.5 -20.5t-49.5 20.5t-20.5 49z M664 1253.5q0 28.5 20.5 49t49 20.5t49 -20.5t20.5 -49t-20.5 -49t-49 -20.5t-49 20.5t-20.5 49z" />
<glyph unicode="&#xfd;" d="M4 877v92h422v-92h-158l295 -721l273 721h-154v92h403v-92h-147l-496 -1311h-270v92h205l135 369l-348 850h-160zM393 1098l205 317h117l-244 -317h-78z" />
<glyph unicode="&#xfe;" horiz-adv-x="1216" d="M-4 -342h176v1640h-168v93h275v-627h4q55 102 155.5 160.5t220.5 58.5q201 0 336 -144.5t135 -363.5t-133 -361.5t-344 -142.5q-260 0 -370 222h-4v-535h176v-92h-459v92zM274 480q0 -181 106.5 -296.5t273.5 -115.5t271.5 114.5t104.5 296.5t-108.5 297t-273.5 115 t-269.5 -115t-104.5 -296z" />
<glyph unicode="&#xff;" d="M4 877v92h422v-92h-158l295 -721l273 721h-154v92h403v-92h-147l-496 -1311h-270v92h205l135 369l-348 850h-160zM297 1253.5q0 28.5 20.5 49t49 20.5t49 -20.5t20.5 -49t-20.5 -49t-49 -20.5t-49 20.5t-20.5 49zM651 1253.5q0 28.5 20.5 49t49.5 20.5t49.5 -20.5 t20.5 -49t-20.5 -49t-49.5 -20.5t-49.5 20.5t-20.5 49z" />
<glyph unicode="&#x152;" horiz-adv-x="2154" d="M102 688q0 255 148 460q78 109 226.5 176t350.5 67h1203v-334h-93v241h-725v-534h576v-92h-576v-580h725v248h93v-340h-1188q-188 0 -334 57.5t-232 155.5q-174 198 -174 475zM217 688q0 -285 173 -440.5t458 -155.5h250v1206h-236q-416 0 -565 -272q-80 -146 -80 -338z " />
<glyph unicode="&#x153;" horiz-adv-x="1898" d="M80 482q0 230 127 371.5t332 141.5q141 0 252.5 -74.5t156.5 -199.5q57 129 170 201.5t252 72.5q170 0 308 -117q71 -59 113 -166.5t42 -248.5h-832q6 -180 113 -291t275 -111q233 0 360 207l84 -39q-150 -258 -449 -258t-436 258q-47 -119 -157.5 -188.5t-253.5 -69.5 q-207 0 -332 140.5t-125 370.5zM186 493q0 -198 94.5 -314t251.5 -116t260 98.5t103 305.5t-95 319.5t-252 112.5t-259.5 -104t-102.5 -302zM1001 555h721q-10 150 -109.5 251t-243.5 101t-252 -102.5t-116 -249.5z" />
<glyph unicode="&#x178;" horiz-adv-x="1236" d="M-39 1298v93h496v-93h-183l361 -571l362 571h-180v93h459v-93h-168l-426 -671v-535h199v-92h-506v92h192v535l-426 671h-180zM373 1669q0 29 20.5 49.5t49 20.5t49 -20.5t20.5 -49.5t-20.5 -49.5t-49 -20.5t-49 20.5t-20.5 49.5zM727 1669q0 29 20.5 49.5t49 20.5 t49 -20.5t20.5 -49.5t-20.5 -49.5t-49 -20.5t-49 20.5t-20.5 49.5z" />
<glyph unicode="&#x2c6;" horiz-adv-x="681" d="M39 1106l242 297h102l260 -297h-76l-235 207l-221 -207h-72z" />
<glyph unicode="&#x2dc;" horiz-adv-x="681" d="M10 1165q57 180 180 181q55 0 153.5 -49.5t154.5 -49.5q78 0 120 96h54q-20 -82 -71.5 -130t-113 -48t-160 49.5t-143.5 49.5q-81 -1 -118 -99h-56z" />
<glyph unicode="&#x2000;" horiz-adv-x="927" />
<glyph unicode="&#x2001;" horiz-adv-x="1855" />
<glyph unicode="&#x2002;" horiz-adv-x="927" />
<glyph unicode="&#x2003;" horiz-adv-x="1855" />
<glyph unicode="&#x2004;" horiz-adv-x="618" />
<glyph unicode="&#x2005;" horiz-adv-x="463" />
<glyph unicode="&#x2006;" horiz-adv-x="309" />
<glyph unicode="&#x2007;" horiz-adv-x="309" />
<glyph unicode="&#x2008;" horiz-adv-x="231" />
<glyph unicode="&#x2009;" horiz-adv-x="371" />
<glyph unicode="&#x200a;" horiz-adv-x="103" />
<glyph unicode="&#x2010;" horiz-adv-x="704" d="M70 438v92h563v-92h-563z" />
<glyph unicode="&#x2011;" horiz-adv-x="704" d="M70 438v92h563v-92h-563z" />
<glyph unicode="&#x2012;" horiz-adv-x="704" d="M70 438v92h563v-92h-563z" />
<glyph unicode="&#x2013;" horiz-adv-x="1024" d="M-12 459v108h1048v-108h-1048z" />
<glyph unicode="&#x2014;" horiz-adv-x="2048" d="M-12 459v108h2072v-108h-2072z" />
<glyph unicode="&#x2018;" horiz-adv-x="512" d="M199 942v223q0 219 133 226v-74q-41 0 -53.5 -37t-16.5 -147h51v-191h-114z" />
<glyph unicode="&#x2019;" horiz-adv-x="512" d="M180 942v74q41 0 53.5 37t16.5 147h-51v191h114v-224q0 -219 -133 -225z" />
<glyph unicode="&#x201a;" horiz-adv-x="512" d="M180 -184q41 0 53.5 36.5t16.5 147.5h-51v190h114v-223q0 -219 -133 -225v74z" />
<glyph unicode="&#x201c;" horiz-adv-x="980" d="M184 942v223q0 219 133 226v-74q-41 0 -53 -36.5t-16 -147.5h51v-191h-115zM664 942v223q0 219 133 226v-74q-41 0 -53.5 -36.5t-16.5 -147.5h51v-191h-114z" />
<glyph unicode="&#x201d;" horiz-adv-x="980" d="M184 942v74q41 0 53.5 36.5t16.5 147.5h-51v191h114v-224q0 -219 -133 -225zM664 942v74q41 0 53 36.5t16 147.5h-51v191h115v-224q0 -219 -133 -225z" />
<glyph unicode="&#x201e;" horiz-adv-x="980" d="M180 -184q41 0 53.5 36.5t16.5 147.5h-51v190h114v-223q0 -219 -133 -225v74zM668 -184q41 0 53 36.5t16 147.5h-51v190h115v-223q0 -219 -133 -225v74z" />
<glyph unicode="&#x2022;" horiz-adv-x="1024" d="M262 698.5q0 102.5 74 176t176 73.5t176 -73.5t74 -176t-74 -176t-176 -73.5t-176 73.5t-74 176z" />
<glyph unicode="&#x2026;" horiz-adv-x="2048" d="M285 0v190h114v-190h-114zM967 0v190h114v-190h-114zM1649 0v190h114v-190h-114z" />
<glyph unicode="&#x202f;" horiz-adv-x="371" />
<glyph unicode="&#x2039;" horiz-adv-x="468" d="M33 489l313 490h113l-312 -490l312 -489h-113z" />
<glyph unicode="&#x203a;" horiz-adv-x="468" d="M10 0l312 489l-312 490h113l313 -490l-313 -489h-113z" />
<glyph unicode="&#x205f;" horiz-adv-x="463" />
<glyph unicode="&#x20ac;" d="M25 541v86h135l-2 65q0 51 2 76h-135v86h141q25 209 120 370q50 85 134 136t188 51q203 0 312 -178v156h92v-340h-92q-23 113 -109 196.5t-183.5 83.5t-163 -46t-104.5 -122q-69 -136 -92 -307h418v-86h-424l-2 -68q0 -49 2 -73h424v-86h-416q20 -166 92 -307 q39 -76 106 -121t166 -45t166.5 71.5t123.5 198.5l88 -39q-123 -317 -379 -317q-113 0 -200 48t-140 132q-103 163 -127 379h-141z" />
<glyph unicode="&#x2122;" horiz-adv-x="1921" d="M231 1303v88h637v-88h-264v-730h-106v730h-267zM961 573v818h155l203 -654h4l209 654h156v-818h-93v730h-4l-237 -730h-70l-225 730h-4v-730h-94z" />
<glyph unicode="&#xe000;" horiz-adv-x="972" d="M0 0v973h973v-973h-973z" />
</font>
</defs>
</svg>
